# xmcd
#
# Track frame offsets: 
#        150
#        111170
#        178375
#        241575
#        255075
#
# Disc length: 4022 seconds
#
# Revision: 4
# Processed by: cddbd v1.5.2PL0 Copyright (c) Steve Scherf et al.
# Submitted via: ExactAudioCopy v0.90b4
#
DISCID=350fb405
DTITLE=Chris Cutler and Fred Frith - Vol.2 - Live In Trondheim, Berlin &
DTITLE=Limoges
DYEAR=1994
DGENRE=Progressive Rock
TTITLE0=Artcore
TTITLE1=Webcore
TTITLE2=You Might Hear Some Traffic's Noise
TTITLE3=Nothing
TTITLE4=Meltdown
EXTD=YEAR: 1994
EXTT0=
EXTT1=
EXTT2=
EXTT3=
EXTT4=
PLAYORDER=
